<svg xmlns="http://www.w3.org/2000/svg" viewBox="0 0 64 64" fill="none">
  <defs>
    <radialGradient id="bg" cx="50%" cy="50%" r="50%">
      <stop offset="0%" stop-color="#d4a843"/>
      <stop offset="100%" stop-color="#8a6410"/>
    </radialGradient>
    <radialGradient id="shine" cx="35%" cy="30%" r="60%">
      <stop offset="0%" stop-color="#ffe87a" stop-opacity="0.7"/>
      <stop offset="100%" stop-color="#d4a843" stop-opacity="0"/>
    </radialGradient>
    <linearGradient id="petal" x1="0%" y1="0%" x2="100%" y2="100%">
      <stop offset="0%" stop-color="#fff9e6"/>
      <stop offset="100%" stop-color="#f0c040"/>
    </linearGradient>
  </defs>
  <circle cx="32" cy="32" r="31" fill="url(#bg)"/>
  <circle cx="32" cy="32" r="31" fill="url(#shine)"/>
  <circle cx="32" cy="32" r="27" fill="#1a0e00" fill-opacity="0.55"/>
  <ellipse cx="32" cy="20" rx="4" ry="8" fill="url(#petal)" opacity="0.92" transform="rotate(0,32,32)"/>
  <ellipse cx="32" cy="20" rx="4" ry="8" fill="url(#petal)" opacity="0.85" transform="rotate(45,32,32)"/>
  <ellipse cx="32" cy="20" rx="4" ry="8" fill="url(#petal)" opacity="0.92" transform="rotate(90,32,32)"/>
  <ellipse cx="32" cy="20" rx="4" ry="8" fill="url(#petal)" opacity="0.85" transform="rotate(135,32,32)"/>
  <ellipse cx="32" cy="20" rx="4" ry="8" fill="url(#petal)" opacity="0.92" transform="rotate(180,32,32)"/>
  <ellipse cx="32" cy="20" rx="4" ry="8" fill="url(#petal)" opacity="0.85" transform="rotate(225,32,32)"/>
  <ellipse cx="32" cy="20" rx="4" ry="8" fill="url(#petal)" opacity="0.92" transform="rotate(270,32,32)"/>
  <ellipse cx="32" cy="20" rx="4" ry="8" fill="url(#petal)" opacity="0.85" transform="rotate(315,32,32)"/>
  <circle cx="32" cy="32" r="7" fill="url(#bg)"/>
  <circle cx="32" cy="32" r="5" fill="#fff9e6" opacity="0.95"/>
  <circle cx="32" cy="32" r="2.5" fill="url(#bg)"/>
  <circle cx="32" cy="7" r="1.5" fill="#ffe87a" opacity="0.8"/>
  <circle cx="57" cy="32" r="1.5" fill="#ffe87a" opacity="0.8"/>
  <circle cx="32" cy="57" r="1.5" fill="#ffe87a" opacity="0.8"/>
  <circle cx="7" cy="32" r="1.5" fill="#ffe87a" opacity="0.8"/>
</svg>
